<svg width="46" height="12" viewBox="0 0 46 12" fill="#080808" xmlns="http://www.w3.org/2000/svg">
<path d="M1.17379 10.9414H5.17761L5.16238 10.8501L4.58389 10.8044C4.38598 10.8044 4.23374 10.7892 4.11195 10.7739C3.99016 10.7587 3.91405 10.7435 3.85315 10.7131C3.79226 10.6978 3.74659 10.6826 3.74659 10.6674C3.73136 10.6522 3.73136 10.6217 3.73136 10.5913L5.64954 1.56365H7.01967C7.53727 1.62455 7.91786 1.76156 8.13099 2.00514C8.34412 2.24871 8.51158 2.75109 8.63337 3.51228L8.66382 3.69496H8.72471L8.95307 1.42664H1.46304L0.762755 3.69496H0.838873L0.960662 3.49705C1.34125 2.87288 1.6914 2.40095 1.99587 2.09648C2.30034 1.79201 2.68093 1.62455 3.12242 1.56365H4.67523L2.7875 10.5456C2.75705 10.6674 2.49825 10.7587 1.99587 10.7892L1.21946 10.8501L1.17379 10.9414ZM12.537 11.1241C13.009 11.1241 13.6179 10.3934 14.3639 8.93189L14.2725 8.88622L13.1308 10.6217L12.4 10.5304L13.5722 7.60743C14.1051 6.28298 14.3791 5.50657 14.3791 5.29344C14.3791 5.04986 14.2725 4.83673 14.0746 4.6236C13.8767 4.41047 13.694 4.3039 13.5114 4.3039C13.146 4.3039 12.8111 4.47136 12.4914 4.80628C12.1869 5.11076 11.7759 5.64358 11.243 6.41999C10.7102 7.21162 10.2383 7.98802 9.84246 8.76443L9.75112 8.73398C10.2383 7.54654 10.969 5.23255 11.9738 1.82245L12.263 0.84814L9.9947 1.10694L9.96425 1.19828L11.1821 1.24395C11.2887 1.24395 11.3192 1.36574 11.2583 1.5941L10.9386 2.72065C10.7254 3.48183 10.4362 4.42569 10.1013 5.55224C9.75112 6.69401 9.44664 7.6531 9.20307 8.41428L8.33532 10.911L9.0965 10.9871L9.64455 9.54083C10.2687 8.20115 10.9233 7.0746 11.5932 6.16119C12.263 5.24777 12.7349 4.79106 12.9938 4.79106C13.1612 4.79106 13.2982 4.85195 13.42 4.9433C13.5418 5.04986 13.6027 5.17165 13.6027 5.32389C13.6027 5.47612 13.3287 6.2373 12.8111 7.60743C12.6893 7.94235 12.5218 8.35339 12.3087 8.85577C12.0956 9.35815 11.9433 9.75396 11.8368 10.0432C11.715 10.3325 11.6693 10.4999 11.6693 10.5456C11.6693 10.6522 11.7759 10.7739 11.989 10.911C12.2021 11.0632 12.3848 11.1241 12.537 11.1241ZM16.6056 11.1241C17.4276 11.1241 18.2497 10.4086 19.0718 8.96233L18.9652 8.91666C18.5999 9.52561 18.2649 9.95187 17.9605 10.1954C17.656 10.4543 17.3058 10.576 16.9405 10.576C16.5447 10.576 16.2402 10.4086 16.0271 10.0737C15.8139 9.73874 15.7074 9.29725 15.7074 8.7492C15.7074 8.27727 15.7835 7.77489 15.9509 7.22684C17.2449 7.02893 18.204 6.77013 18.8282 6.45044C19.4372 6.14596 19.7568 5.73493 19.7568 5.24777C19.7568 4.97374 19.6198 4.74539 19.361 4.56271C19.087 4.38002 18.7673 4.28868 18.3867 4.28868C17.8387 4.28868 17.2906 4.53226 16.7426 4.98897C16.1945 5.4609 15.753 6.06984 15.4181 6.80058C15.068 7.53131 14.9005 8.27727 14.9005 9.02323C14.9005 9.61695 15.0527 10.1193 15.3572 10.5151C15.6617 10.9262 16.0727 11.1241 16.6056 11.1241ZM16.0423 7.0746L16.0118 7.05938C16.3163 6.16119 16.6969 5.47612 17.1841 4.98897C17.5799 4.6236 17.9148 4.42569 18.2193 4.42569C18.4476 4.42569 18.6303 4.50181 18.7673 4.65405C18.8891 4.80628 18.9652 4.98897 18.9652 5.2021C18.9652 5.7197 18.7521 6.11552 18.341 6.38954C17.93 6.66357 17.1688 6.89192 16.0423 7.0746ZM22.0245 10.9414H28.6924L29.6819 8.30772L29.5754 8.29249L29.4688 8.4904C29.0273 9.25158 28.6011 9.83008 28.2052 10.2107C27.7942 10.5913 27.2614 10.7892 26.6068 10.7892L24.3384 10.7283L26.2262 1.82245C26.2414 1.70066 26.5002 1.62455 27.0178 1.57887L27.9312 1.51798L27.9921 1.42664H24.0492L24.0644 1.51798L24.4298 1.56365C24.856 1.62455 25.0996 1.65499 25.1757 1.67022C25.2519 1.70066 25.2823 1.73111 25.2823 1.77678L23.425 10.5304C23.3946 10.6522 23.1358 10.7283 22.6334 10.7892L22.0701 10.8501L22.0245 10.9414ZM34.1781 11.1393C34.7719 11.1393 35.4417 10.4086 36.1724 8.93189L36.0811 8.88622L34.9698 10.6217L34.2847 10.5456L35.1981 7.63788L36.3399 4.33435L35.5787 4.27346L35.1372 5.73493H35.122C35.122 4.82151 34.8328 4.3648 34.2543 4.3648C33.828 4.3648 33.417 4.57793 32.9907 5.00419C32.3665 5.62836 31.788 6.38954 31.2704 7.28774C30.7528 8.18593 30.494 9.00801 30.494 9.75396C30.494 10.165 30.6006 10.4999 30.8442 10.7435C31.0725 10.9871 31.3618 11.1089 31.6967 11.1089C32.0621 11.1089 32.4274 10.8957 32.808 10.439C33.1886 9.99754 33.691 9.23636 34.3152 8.17071H34.3456C33.9193 9.23636 33.7214 9.89098 33.7214 10.1346C33.7214 10.3934 33.7519 10.6217 33.8432 10.8348C33.9346 11.048 34.0411 11.1393 34.1781 11.1393ZM32.1077 10.4847C31.8946 10.4847 31.6967 10.4086 31.5445 10.2259C31.3922 10.0432 31.3161 9.78441 31.3161 9.41904C31.3161 8.76443 31.4836 8.00325 31.8489 7.1355C32.1991 6.26775 32.5797 5.62836 33.0059 5.2021C33.2799 4.92807 33.554 4.79106 33.828 4.79106C34.1477 4.79106 34.4065 4.9433 34.6196 5.21732C34.8175 5.50657 34.9241 5.79582 34.9241 6.08507C34.9241 6.45044 34.8023 6.8767 34.5587 7.36385C33.5235 9.44949 32.7015 10.4847 32.1077 10.4847ZM38.3228 11.1241C38.8099 11.1241 39.2819 10.9566 39.7081 10.5913C40.1344 10.2259 40.3323 9.79963 40.3323 9.29725C40.3323 9.03845 40.241 8.76443 40.0887 8.47518C39.9365 8.20115 39.5863 7.79011 39.0383 7.25729C38.3989 6.64834 38.064 6.13074 38.064 5.73493C38.0487 5.36956 38.1553 5.06509 38.3989 4.80628C38.6272 4.54748 38.9469 4.41047 39.3428 4.41047C39.7386 4.41047 40.0887 4.60838 40.378 4.98897C40.043 5.09553 39.8756 5.29344 39.8756 5.58269C39.8756 5.73493 39.906 5.85671 39.9974 5.94806C40.0887 6.0394 40.1953 6.08507 40.3475 6.08507C40.4845 6.08507 40.6063 6.0394 40.7129 5.91761C40.8195 5.81104 40.8651 5.65881 40.8651 5.47612C40.8499 5.11076 40.7129 4.82151 40.4541 4.60838C40.1801 4.39525 39.8147 4.28868 39.3428 4.28868C38.886 4.28868 38.4446 4.47136 38.0487 4.82151C37.6377 5.18687 37.4398 5.59791 37.455 6.06984C37.455 6.31342 37.5159 6.54178 37.6377 6.77013C37.7595 7.01371 37.8813 7.19639 38.0031 7.33341C38.1249 7.48564 38.338 7.68355 38.612 7.95758C38.612 7.9728 38.6729 8.03369 38.7947 8.15548C38.9165 8.27727 38.9774 8.35339 39.0078 8.38384C39.0383 8.41428 39.0992 8.4904 39.1905 8.59697C39.2819 8.70353 39.358 8.77965 39.3884 8.84055C39.4189 8.90144 39.4645 8.99278 39.5254 9.08412C39.5863 9.17547 39.6168 9.26681 39.6472 9.35815C39.6625 9.44949 39.6777 9.54083 39.6777 9.63217C39.6777 9.98232 39.5711 10.302 39.3428 10.5913C39.1144 10.8805 38.7795 11.0175 38.3228 11.0175C37.8052 11.0175 37.3485 10.7892 36.9526 10.3172C37.0897 10.2716 37.2115 10.1954 37.318 10.0737C37.4094 9.96709 37.4703 9.8453 37.4703 9.70829C37.4703 9.57128 37.4246 9.44949 37.3332 9.35815C37.2419 9.26681 37.1201 9.20591 36.9831 9.20591C36.8461 9.20591 36.7243 9.26681 36.633 9.3886C36.5264 9.51039 36.4807 9.66262 36.4807 9.8453C36.4807 10.2411 36.6482 10.5456 37.0135 10.7739C37.3637 11.0175 37.8052 11.1241 38.3228 11.1241ZM42.0865 11.1241C42.5584 11.1241 43.1521 10.3934 43.8828 8.93189L43.7915 8.88622L42.6954 10.6217L41.8886 10.5304L43.5784 4.9433H44.9181L45.0398 4.53226L43.7154 4.51703L44.3548 2.44662H43.6088L42.9694 4.51703L41.8886 4.53226L41.7515 4.92807L42.8324 4.9433L41.1578 10.4999C41.1121 10.6217 41.2187 10.7435 41.4623 10.8957C41.7059 11.048 41.919 11.1241 42.0865 11.1241ZM45.1507 11.1545C45.3334 11.1545 45.4856 11.0936 45.6074 10.9566C45.7292 10.8196 45.8053 10.6522 45.8053 10.4695C45.8053 10.302 45.7444 10.1498 45.6226 10.0128C45.5008 9.89098 45.3486 9.81486 45.1659 9.81486C44.968 9.81486 44.8005 9.89098 44.6635 10.0128C44.5265 10.1498 44.4656 10.302 44.4656 10.4695C44.4656 10.6522 44.5265 10.8196 44.6635 10.9566C44.7853 11.0936 44.9528 11.1545 45.1507 11.1545Z" fill="white"/>
</svg>
